<svg xmlns="http://www.w3.org/2000/svg" width="1024" height="1024" viewBox="0 0 1024 1024" shape-rendering="geometricPrecision"><rect x="0" y="0" width="1024" height="1024" fill="black"/><defs><filter id="glow" x="-50%" y="-50%" width="200%" height="200%"><feGaussianBlur stdDeviation="24"/></filter><linearGradient id="flame" x1="0" y1="1" x2="0" y2="0"><stop offset="0%" stop-color="#ff3d00"/><stop offset="55%" stop-color="#ff9100"/><stop offset="85%" stop-color="#ffd54f"/><stop offset="100%" stop-color="#fff9c4"/></linearGradient></defs><path d="M512,140 C650,300 700,420 660,540 C750,500 800,420 780,320 C880,460 900,620 820,760 C760,850 640,900 512,900 C384,900 264,850 204,760 C124,620 144,460 244,320 C224,420 274,500 364,540 C324,420 374,300 512,140 Z" fill="url(#flame)" opacity="0.55" filter="url(#glow)"/><path d="M512,140 C650,300 700,420 660,540 C750,500 800,420 780,320 C880,460 900,620 820,760 C760,850 640,900 512,900 C384,900 264,850 204,760 C124,620 144,460 244,320 C224,420 274,500 364,540 C324,420 374,300 512,140 Z" fill="url(#flame)"/></svg>
